<svg width="304" height="427" viewBox="0 0 304 427" fill="none" xmlns="http://www.w3.org/2000/svg">
<path d="M279 0L284.613 17.2746H302.776L288.082 27.9508L293.695 45.2254L279 34.5491L264.305 45.2254L269.918 27.9508L255.224 17.2746H273.387L279 0Z" fill="#DEE4EA"/>
<path d="M38 162L43.6129 179.275H61.7764L47.0818 189.951L52.6946 207.225L38 196.549L23.3054 207.225L28.9182 189.951L14.2236 179.275H32.3871L38 162Z" fill="#DEE4EA"/>
<path d="M223 197L228.613 214.275H246.776L232.082 224.951L237.695 242.225L223 231.549L208.305 242.225L213.918 224.951L199.224 214.275H217.387L223 197Z" fill="#DEE4EA"/>
<path d="M255 377L260.613 394.275H278.776L264.082 404.951L269.695 422.225L255 411.549L240.305 422.225L245.918 404.951L231.224 394.275H249.387L255 377Z" fill="#DEE4EA"/>
<path d="M206.5 347L209.306 355.637H218.388L211.041 360.975L213.847 369.613L206.5 364.275L199.153 369.613L201.959 360.975L194.612 355.637H203.694L206.5 347Z" fill="#DEE4EA"/>
<path d="M176.5 329L179.306 337.637H188.388L181.041 342.975L183.847 351.613L176.5 346.275L169.153 351.613L171.959 342.975L164.612 337.637H173.694L176.5 329Z" fill="#DEE4EA"/>
<path d="M116.5 339L119.306 347.637H128.388L121.041 352.975L123.847 361.613L116.5 356.275L109.153 361.613L111.959 352.975L104.612 347.637H113.694L116.5 339Z" fill="#DEE4EA"/>
<path d="M94.5 402L97.3064 410.637H106.388L99.0409 415.975L101.847 424.613L94.5 419.275L87.1527 424.613L89.9591 415.975L82.6118 410.637H91.6936L94.5 402Z" fill="#DEE4EA"/>
<path d="M12.5 278L15.3064 286.637H24.3882L17.0409 291.975L19.8473 300.613L12.5 295.275L5.15268 300.613L7.95911 291.975L0.611794 286.637H9.69357L12.5 278Z" fill="#DEE4EA"/>
<path d="M12.5 247L15.3064 255.637H24.3882L17.0409 260.975L19.8473 269.613L12.5 264.275L5.15268 269.613L7.95911 260.975L0.611794 255.637H9.69357L12.5 247Z" fill="#DEE4EA"/>
<path d="M39.5 237L42.3064 245.637H51.3882L44.0409 250.975L46.8473 259.613L39.5 254.275L32.1527 259.613L34.9591 250.975L27.6118 245.637H36.6936L39.5 237Z" fill="#DEE4EA"/>
<path d="M141.5 229L144.306 237.637H153.388L146.041 242.975L148.847 251.613L141.5 246.275L134.153 251.613L136.959 242.975L129.612 237.637H138.694L141.5 229Z" fill="#DEE4EA"/>
<path d="M154.5 101L157.306 109.637H166.388L159.041 114.975L161.847 123.613L154.5 118.275L147.153 123.613L149.959 114.975L142.612 109.637H151.694L154.5 101Z" fill="#DEE4EA"/>
<line x1="206.305" y1="359.604" x2="258.305" y2="399.604" stroke="#DEE4EA"/>
<line x1="177.268" y1="340.578" x2="207.268" y2="359.578" stroke="#DEE4EA"/>
<line x1="115.936" y1="349.504" x2="177.936" y2="341.504" stroke="#DEE4EA"/>
<line x1="117.477" y1="350.149" x2="97.4772" y2="414.149" stroke="#DEE4EA"/>
<line x1="12.4145" y1="289.72" x2="97.4145" y2="415.72" stroke="#DEE4EA"/>
<line x1="13.4997" y1="258.017" x2="12.4997" y2="288.017" stroke="#DEE4EA"/>
<line x1="12.853" y1="259.522" x2="38.853" y2="251.522" stroke="#DEE4EA"/>
<line x1="38.5" y1="187" x2="38.5" y2="250" stroke="#DEE4EA"/>
<line x1="39.2453" y1="183.564" x2="142.245" y2="241.564" stroke="#DEE4EA"/>
<line x1="141.901" y1="241.51" x2="225.901" y2="224.51" stroke="#DEE4EA"/>
<line x1="41.7377" y1="182.574" x2="153.738" y2="113.574" stroke="#DEE4EA"/>
<line x1="154.709" y1="113.594" x2="274.709" y2="27.5936" stroke="#DEE4EA"/>
</svg>
