<svg width="427" height="463" viewBox="0 0 427 463" fill="none" xmlns="http://www.w3.org/2000/svg"><ellipse cx="213" cy="195.5" rx="103" ry="195.5" fill="#DEE4EA"/><circle cx="212.505" cy="59" r="27.5" fill="#0E76BD" stroke="#194687" stroke-width="5"/><circle cx="212.005" cy="150.5" r="40" fill="#0E76BD" stroke="#194687" stroke-width="5"/><rect x="179" y="393" width="69" height="44" rx="20" fill="#F26122"/><rect x="163.505" y="372" width="100" height="38" rx="19" fill="#194687"/><rect x="137.505" y="352" width="151" height="38" rx="19" fill="#BCBDC0"/><path d="M278.385 219.385c.397-11.601 16.162-14.758 20.995-4.204l93.222 203.577c2.955 6.452-.883 13.972-7.842 15.365l-100.877 20.199c-6.959 1.393-13.396-4.07-13.154-11.162l7.656-223.775zM148.029 219.385c-.397-11.601-16.162-14.758-20.995-4.204L33.8122 418.758c-2.9546 6.452.8832 13.972 7.8417 15.365l100.8781 20.199c6.958 1.393 13.396-4.07 13.153-11.162l-7.656-223.775z" fill="#F26122"/></svg>